<mxfile host="www.draw.io" modified="2019-11-19T09:09:23.582Z" agent="Mozilla/5.0 (Windows NT 10.0; Win64; x64) AppleWebKit/537.36 (KHTML, like Gecko) Chrome/78.0.3904.87 Safari/537.36" etag="_u99j2NvRehY7wbA7XMF" version="12.2.6" type="github" pages="1">
  <diagram name="Page-1" id="74e2e168-ea6b-b213-b513-2b3c1d86103e">
    <mxGraphModel dx="2240" dy="1162" grid="1" gridSize="10" guides="1" tooltips="1" connect="1" arrows="1" fold="1" page="1" pageScale="1" pageWidth="1100" pageHeight="850" background="#ffffff" math="0" shadow="0">
      <root>
        <mxCell id="0"/>
        <mxCell id="1" parent="0"/>
        <mxCell id="-XIAN5wkCvrdkJeY7ch8-14" value="" style="edgeStyle=orthogonalEdgeStyle;rounded=0;orthogonalLoop=1;jettySize=auto;html=1;entryX=0.5;entryY=0;entryDx=0;entryDy=0;" edge="1" parent="1" source="-XIAN5wkCvrdkJeY7ch8-1" target="-XIAN5wkCvrdkJeY7ch8-16">
          <mxGeometry relative="1" as="geometry">
            <mxPoint x="500" y="230" as="targetPoint"/>
          </mxGeometry>
        </mxCell>
        <mxCell id="-XIAN5wkCvrdkJeY7ch8-1" value="用户填报包裹&lt;br&gt;完善退税信息" style="rounded=1;whiteSpace=wrap;html=1;shadow=0;labelBackgroundColor=none;strokeWidth=1;fontFamily=Verdana;fontSize=8;align=center;" vertex="1" parent="1">
          <mxGeometry x="450" y="90" width="100" height="60" as="geometry"/>
        </mxCell>
        <mxCell id="-XIAN5wkCvrdkJeY7ch8-2" value="提交回国订单&lt;br&gt;加入adi_tax_refund_invoice" style="rounded=1;whiteSpace=wrap;html=1;shadow=0;labelBackgroundColor=none;strokeWidth=1;fontFamily=Verdana;fontSize=8;align=center;" vertex="1" parent="1">
          <mxGeometry x="385" y="410" width="230" height="60" as="geometry"/>
        </mxCell>
        <mxCell id="-XIAN5wkCvrdkJeY7ch8-11" value="&lt;ol&gt;&lt;li&gt;购物发票&lt;/li&gt;&lt;li&gt;扣款截图&lt;/li&gt;&lt;li&gt;邮件PDF&lt;/li&gt;&lt;/ol&gt;" style="text;strokeColor=none;fillColor=#FFFF00;html=1;whiteSpace=wrap;verticalAlign=middle;overflow=hidden;" vertex="1" parent="1">
          <mxGeometry x="350" y="90" width="100" height="80" as="geometry"/>
        </mxCell>
        <mxCell id="-XIAN5wkCvrdkJeY7ch8-15" value="购物发票已上传，等待客服审核" style="text;html=1;fillColor=#33FFFF;" vertex="1" parent="1">
          <mxGeometry x="405" y="180" width="190" height="30" as="geometry"/>
        </mxCell>
        <mxCell id="-XIAN5wkCvrdkJeY7ch8-19" value="" style="edgeStyle=orthogonalEdgeStyle;rounded=0;orthogonalLoop=1;jettySize=auto;html=1;entryX=0;entryY=0.5;entryDx=0;entryDy=0;" edge="1" parent="1" source="-XIAN5wkCvrdkJeY7ch8-16" target="-XIAN5wkCvrdkJeY7ch8-25">
          <mxGeometry relative="1" as="geometry">
            <mxPoint x="620" y="270" as="targetPoint"/>
          </mxGeometry>
        </mxCell>
        <mxCell id="-XIAN5wkCvrdkJeY7ch8-21" value="" style="edgeStyle=orthogonalEdgeStyle;rounded=0;orthogonalLoop=1;jettySize=auto;html=1;entryX=0.5;entryY=0;entryDx=0;entryDy=0;" edge="1" parent="1" source="-XIAN5wkCvrdkJeY7ch8-16" target="-XIAN5wkCvrdkJeY7ch8-2">
          <mxGeometry relative="1" as="geometry">
            <mxPoint x="500" y="380" as="targetPoint"/>
          </mxGeometry>
        </mxCell>
        <mxCell id="-XIAN5wkCvrdkJeY7ch8-16" value="后台审核" style="rhombus;whiteSpace=wrap;html=1;rounded=0;shadow=0;labelBackgroundColor=none;strokeWidth=1;fontFamily=Verdana;fontSize=8;align=center;" vertex="1" parent="1">
          <mxGeometry x="460" y="240" width="80" height="60" as="geometry"/>
        </mxCell>
        <mxCell id="-XIAN5wkCvrdkJeY7ch8-22" value="通过" style="text;html=1;resizable=0;points=[];autosize=1;align=left;verticalAlign=top;spacingTop=-4;" vertex="1" parent="1">
          <mxGeometry x="500" y="320" width="40" height="20" as="geometry"/>
        </mxCell>
        <mxCell id="-XIAN5wkCvrdkJeY7ch8-23" value="不通过" style="text;html=1;resizable=0;points=[];autosize=1;align=left;verticalAlign=top;spacingTop=-4;" vertex="1" parent="1">
          <mxGeometry x="545" y="270" width="50" height="20" as="geometry"/>
        </mxCell>
        <mxCell id="-XIAN5wkCvrdkJeY7ch8-29" value="" style="edgeStyle=orthogonalEdgeStyle;rounded=0;orthogonalLoop=1;jettySize=auto;html=1;entryX=0.5;entryY=0;entryDx=0;entryDy=0;" edge="1" parent="1" source="-XIAN5wkCvrdkJeY7ch8-25" target="-XIAN5wkCvrdkJeY7ch8-16">
          <mxGeometry relative="1" as="geometry">
            <mxPoint x="700" y="160" as="targetPoint"/>
            <Array as="points">
              <mxPoint x="700" y="170"/>
              <mxPoint x="500" y="170"/>
            </Array>
          </mxGeometry>
        </mxCell>
        <mxCell id="-XIAN5wkCvrdkJeY7ch8-25" value="重新上传" style="rounded=1;whiteSpace=wrap;html=1;shadow=0;labelBackgroundColor=none;strokeWidth=1;fontFamily=Verdana;fontSize=8;align=center;" vertex="1" parent="1">
          <mxGeometry x="650" y="240" width="100" height="60" as="geometry"/>
        </mxCell>
        <mxCell id="-XIAN5wkCvrdkJeY7ch8-30" value="购物发票审核通过，等待退税" style="text;html=1;fillColor=#00FFFF;" vertex="1" parent="1">
          <mxGeometry x="415" y="340" width="180" height="30" as="geometry"/>
        </mxCell>
        <mxCell id="-XIAN5wkCvrdkJeY7ch8-31" value="购物发票审核不通过" style="text;html=1;fillColor=#00FFFF;" vertex="1" parent="1">
          <mxGeometry x="525" y="285" width="115" height="30" as="geometry"/>
        </mxCell>
        <mxCell id="-XIAN5wkCvrdkJeY7ch8-32" value="&lt;div&gt;希望由退税公司审核，并反馈&lt;/div&gt;&lt;div&gt;---&lt;/div&gt;&lt;div&gt;需要提供接收审核结果的接口&lt;/div&gt;" style="text;strokeColor=none;fillColor=#FF9999;html=1;whiteSpace=wrap;verticalAlign=middle;overflow=hidden;" vertex="1" parent="1">
          <mxGeometry x="280" y="230" width="180" height="80" as="geometry"/>
        </mxCell>
      </root>
    </mxGraphModel>
  </diagram>
</mxfile>
